# xmcd
#
# Track frame offsets:
# 150
# 17030
# 33139
# 49511
# 67045
# 87155
# 106290
# 133253
# 149732
# 162980
# 174574
#
# Disc length: 2565 seconds
#
#
# Revision: 0
# Processed by: cddbd v1.5.2PL0 Copyright (c) Steve Scherf et al.
# Submitted via: FreeRIP 2.96 
#
DISCID=960a030b
DTITLE=JB Walker and his Cheap Whiskey Band - Iron Horses and Wild Women
DYEAR=1900
DGENRE=Country
TTITLE0=Son of the south
TTITLE1=For what it's worth
TTITLE2=Iron horses and wild women
TTITLE3=He's a rebel
TTITLE4=Everybody dies
TTITLE5=Brothers
TTITLE6=Can' you see
TTITLE7=Apache
TTITLE8=Wild and free
TTITLE9=Let's dance
TTITLE10=West Georgia man
EXTD=
EXTT0=
EXTT1=
EXTT2=
EXTT3=
EXTT4=
EXTT5=
EXTT6=
EXTT7=
EXTT8=
EXTT9=
EXTT10=
PLAYORDER=
